<svg width="28" height="36" viewBox="0 0 28 36" fill="none" xmlns="http://www.w3.org/2000/svg">
<g clip-path="url(#clip0_181_66)">
<path d="M23.566 1.398L14.071 10.902H23.566V1.398ZM23.566 1.398V4M14.049 0V36M23.566 20.404L14.071 10.9M23.566 20.404V34.029L14.071 24.525M23.566 20.404L14.07 10.9M23.566 20.404L23.565 24.47H27.64V10.9H14.07M14.071 10.9V24.525M14.071 10.9L4.575 20.404M14.071 24.525L4.575 34.029V20.404M4.575 20.404L4.574 24.47H0.5V10.9H14.07M4.575 20.404L14.07 10.9M14.07 10.902L4.574 1.398V10.902H14.07Z" stroke="#20808D" stroke-miterlimit="10"/>
</g>
<defs>
<clipPath id="clip0_181_66">
<rect width="28" height="36" fill="white"/>
</clipPath>
</defs>
</svg>
